<?xml version="1.0" encoding="utf-8"?>
<!-- Generator: Adobe Illustrator 21.0.2, SVG Export Plug-In . SVG Version: 6.00 Build 0)  -->
<svg version="1.1" id="Layer_1" xmlns="http://www.w3.org/2000/svg" xmlns:xlink="http://www.w3.org/1999/xlink" x="0px" y="0px"
	 viewBox="0 0 512 512" style="enable-background:new 0 0 512 512;" xml:space="preserve">
<style type="text/css">
	.st0{fill:#CEE6E8;}
	.st1{fill:#333333;}
	.st2{fill:#59928E;}
	.st3{fill:#CCCCCC;}
	.st4{fill:#666666;}
	.st5{fill:#999999;}
</style>
<g>
	<path class="st0" d="M437,437l-0.5,0.5L437,437L437,437z M437.2,436.9L437,437L437.2,436.9L437.2,436.9z M437.3,436.7l-0.1,0.1
		L437.3,436.7L437.3,436.7z M437.4,436.6L437.4,436.6L437.4,436.6L437.4,436.6z M437.6,436.4L437.6,436.4L437.6,436.4L437.6,436.4z
		 M437.7,436.3L437.7,436.3L437.7,436.3L437.7,436.3z M437.9,436.2L437.9,436.2L437.9,436.2L437.9,436.2z M438,436L438,436L438,436
		L438,436z M438.2,435.9L438.2,435.9L438.2,435.9L438.2,435.9z M438.3,435.7L438.3,435.7L438.3,435.7L438.3,435.7z M438.4,435.6
		L438.4,435.6L438.4,435.6L438.4,435.6z M438.6,435.5L438.6,435.5L438.6,435.5L438.6,435.5z M438.7,435.3L438.7,435.3L438.7,435.3
		L438.7,435.3z M438.8,435.2L438.8,435.2L438.8,435.2L438.8,435.2z"/>
	<path class="st1" d="M389.7,152.1H122.3c-14.9,0-26.9,12.1-26.9,26.9v88l9.3,11.2l-0.1,12.8l0.2,72l0.1,26.9h17.5h267.5h17.4v-26.9
		l0.1-72l0-12.8l9.4-11.2v-88C416.7,164.2,404.6,152.1,389.7,152.1L389.7,152.1z"/>
	<path d="M416.7,224.3v-45.3c0-14.9-12.1-26.9-26.9-26.9H122.3c-14.9,0-26.9,12.1-26.9,26.9v45.3H416.7L416.7,224.3z"/>
	<polygon class="st2" points="95.3,267.1 95.3,267.1 104.6,278.2 104.6,278.2 	"/>
	<polygon class="st3" points="118.6,245.7 163.1,245.7 163.1,203.9 118.6,203.9 	"/>
	<polygon class="st3" points="350.5,203.9 350.5,245.7 395,245.7 395,203.9 	"/>
	<polygon class="st4" points="163.1,224.4 118.6,224.4 118.6,245.7 163.1,245.7 	"/>
	<polygon class="st4" points="395,224.4 350.5,224.4 350.5,245.7 395,245.7 	"/>
	<polygon class="st1" points="198.7,90.6 198.7,152.1 207.2,152.1 207.2,107.9 305.4,107.9 305.4,152.1 313.9,152.1 313.9,90.6 	"/>
	<rect x="207.1" y="100.5" width="98.3" height="7.5"/>
	<path class="st3" d="M262.4,347.9H155.1c-6.6,15.7-22.1,26.7-40.1,26.7c-17.7,0-32.8-10.6-39.6-25.7h42.9l10.3-17.8l-10.3-17.8
		H75.3c6.8-15.1,22-25.7,39.6-25.7c18.1,0,33.5,11,40.1,26.7h107.3c6.1-11.6,18.2-19.6,32.3-19.6c14.8,0,27.5,8.8,33.2,21.5H292
		l-8.6,14.9L292,346h35.9c-5.7,12.7-18.4,21.5-33.2,21.5C280.6,367.5,268.5,359.5,262.4,347.9z"/>
	<path class="st5" d="M262.4,347.9H155.1c-6.6,15.7-22.1,26.7-40.1,26.7c-17.7,0-32.8-10.6-39.6-25.7h42.9l10.3-17.8h154.9L292,346
		h35.9c-5.7,12.7-18.4,21.5-33.2,21.5C280.6,367.5,268.5,359.5,262.4,347.9z"/>
	<path class="st3" d="M428.8,331.1l-19.6-33.9h-39.1l-19.6,33.9l19.6,33.9h39.1L428.8,331.1z M372.8,331.1c0-9.3,7.5-16.9,16.9-16.9
		c9.3,0,16.9,7.5,16.9,16.9c0,9.3-7.5,16.9-16.9,16.9C380.4,347.9,372.8,340.4,372.8,331.1z"/>
	<path class="st5" d="M428.8,331.1h-22.3c0,9.3-7.5,16.9-16.9,16.9s-16.9-7.5-16.9-16.9h-22.3l19.6,33.9h39.1L428.8,331.1z"/>
</g>
</svg>
