<?xml version="1.0" encoding="utf-8"?>
<!-- Generator: Adobe Illustrator 21.0.2, SVG Export Plug-In . SVG Version: 6.00 Build 0)  -->
<svg version="1.1" id="Layer_1" xmlns="http://www.w3.org/2000/svg" xmlns:xlink="http://www.w3.org/1999/xlink" x="0px" y="0px"
	 viewBox="0 0 512 512" style="enable-background:new 0 0 512 512;" xml:space="preserve">
<style type="text/css">
	.st0{fill:#FFFFFF;}
	.st1{fill:#666666;}
	.st2{fill:#CCCCCC;}
	.st3{fill:#333333;}
	.st4{fill:#999999;}
</style>
<g>
	<path d="M417.6,187c-35.7-35.7-93.5-35.7-129.1,0l-57.8,57.8c-4.1,4.1-4.1,10.8,0,15L344.9,374c4.1,4.1,10.8,4.1,15,0l57.8-57.8
		C453.2,280.4,453.2,222.6,417.6,187z"/>
	<circle class="st0" cx="352.7" cy="251.9" r="74.6"/>
	<path class="st1" d="M307.1,297.4c-25.1-25.1-25.1-66,0-91.1s66-25.1,91.1,0s25.1,66,0,91.1S332.2,322.5,307.1,297.4z M390,214.6
		c-20.6-20.6-54.1-20.6-74.6,0c-20.6,20.6-20.6,54.1,0,74.6c20.6,20.6,54.1,20.6,74.6,0C410.6,268.6,410.5,235.1,390,214.6z"/>
	<path class="st1" d="M398.2,206.3L398.2,206.3l-8.2,8.2l0,0c20.6,20.6,20.6,54.1,0,74.6c-20.6,20.6-54.1,20.6-74.6,0l0,0l-8.2,8.2
		l0,0c25.1,25.1,66,25.1,91.1,0C423.3,272.3,423.3,231.4,398.2,206.3z"/>
	<circle class="st1" cx="255.7" cy="252.4" r="10.7"/>
	
		<rect x="178.4" y="114.6" transform="matrix(0.7071 -0.7071 0.7071 0.7071 -76.5098 187.5191)" class="st2" width="19.4" height="143.1"/>
	<circle class="st1" cx="352.1" cy="348.8" r="10.7"/>
	
		<rect x="122.4" y="122.5" transform="matrix(0.7071 -0.7071 0.7071 0.7071 -47.5617 137.2977)" class="st3" width="39.1" height="7.1"/>
	<path class="st3" d="M140.2,142.7l3.3,3.3l9.1-9.1l-3.3-3.3L140.2,142.7z M148.9,151.4l3.3,3.3l9.1-9.1l-3.3-3.3L148.9,151.4z
		 M157.5,160l3.3,3.3l9.1-9.1l-3.3-3.3L157.5,160z M166.2,168.7l3.3,3.3l9.1-9.1l-3.3-3.3L166.2,168.7z M174.8,177.3l3.3,3.3
		l9.1-9.1l-3.3-3.3L174.8,177.3z M183.4,186l3.3,3.3l9.1-9.1l-3.3-3.3L183.4,186z M192.1,194.6l3.3,3.3l9.1-9.1l-3.3-3.3
		L192.1,194.6z M200.8,203.3l3.3,3.3l9.1-9.1l-3.3-3.3L200.8,203.3z M209.4,211.9l3.3,3.3l9.1-9.1l-3.3-3.3L209.4,211.9z M218,220.6
		l3.3,3.3l9.1-9.1l-3.3-3.3L218,220.6z M235.8,220.1l-9.1,9.1l3.3,3.3l9.1-9.1L235.8,220.1z"/>
	
		<rect x="138.3" y="188.9" transform="matrix(0.7071 -0.7071 0.7071 0.7071 -163.627 208.5845)" class="st4" width="63.3" height="225.9"/>
	<path class="st1" d="M227.4,404l12.7-12.7L80.4,231.6l-12.7,12.7L227.4,404z M99.7,212.3L259.4,372l12.7-12.7L112.4,199.6
		L99.7,212.3z"/>
	<polygon class="st2" points="287.7,419.6 227.4,404 272.1,359.3 	"/>
	<polygon class="st3" points="255,411.2 287.7,419.6 279.3,386.9 	"/>
	
		<rect x="66.7" y="218.3" transform="matrix(0.7071 -0.7071 0.7071 0.7071 -133.7881 137.1425)" class="st3" width="63.9" height="23.6"/>
	<g>
		<path d="M352.4,248.5l-15.6-15.6c-1.2-1.2-1.2-3.1,0-4.2l15.6-15.6c1.2-1.2,3.1-1.2,4.2,0l15.6,15.6c1.2,1.2,1.2,3.1,0,4.2
			l-15.6,15.6C355.5,249.6,353.6,249.6,352.4,248.5z"/>
		<path d="M331.3,269.6L315.7,254c-1.2-1.2-1.2-3.1,0-4.2l15.6-15.6c1.2-1.2,3.1-1.2,4.2,0l15.6,15.6c1.2,1.2,1.2,3.1,0,4.2
			l-15.6,15.6C334.4,270.8,332.5,270.8,331.3,269.6z"/>
		<path d="M352.4,290.7l-15.6-15.6c-1.2-1.2-1.2-3.1,0-4.2l15.6-15.6c1.2-1.2,3.1-1.2,4.2,0l15.6,15.6c1.2,1.2,1.2,3.1,0,4.2
			l-15.6,15.6C355.5,291.9,353.6,291.9,352.4,290.7z"/>
	</g>
</g>
</svg>
