<?xml version="1.0" encoding="utf-8"?>
<!-- Generator: Adobe Illustrator 21.0.2, SVG Export Plug-In . SVG Version: 6.00 Build 0)  -->
<svg version="1.1" id="Layer_1" xmlns="http://www.w3.org/2000/svg" xmlns:xlink="http://www.w3.org/1999/xlink" x="0px" y="0px"
	 viewBox="0 0 512 512" style="enable-background:new 0 0 512 512;" xml:space="preserve">
<style type="text/css">
	.st0{fill:#333333;}
	.st1{fill:#FFFFFF;}
	.st2{fill:#999999;}
</style>
<g>
	<rect x="136.5" y="115" class="st0" width="239.1" height="294.8"/>
	<polygon class="st1" points="309.5,395.3 151,395.3 151,122.8 362.5,122.8 362.5,339.4 	"/>
	<polygon class="st2" points="309.5,339.5 362.5,339.5 309.5,395.3 	"/>
	<polygon points="347.7,379.7 362.5,339.5 309.5,395.3 	"/>
	<path class="st2" d="M294.5,108.1c0-20.8-16.9-37.7-37.7-37.7S219,87.3,219,108.1h-27v44.2h128v-44.2
		C320,108.1,294.5,108.1,294.5,108.1z M211.6,137.3c-4,0-7.2-3.2-7.2-7.2s3.2-7.2,7.2-7.2s7.2,3.2,7.2,7.2S215.5,137.3,211.6,137.3z
		 M240.6,108.1c0-8.9,7.2-16.1,16.1-16.1c8.9,0,16.1,7.2,16.1,16.1H240.6z M301,137.3c-4,0-7.2-3.2-7.2-7.2s3.2-7.2,7.2-7.2
		s7.2,3.2,7.2,7.2S305,137.3,301,137.3z"/>
	<path d="M174.4,178.9v6.7h163.1v-6.7H174.4z M174.4,204.7h163.1V198H174.4V204.7z M174.4,223.7h163.1V217H174.4V223.7z
		 M174.4,242.7h163.1V236H174.4V242.7z M174.4,261.7h163.1V255H174.4V261.7z M174.4,280.7h163.1V274H174.4V280.7z M174.4,299.7
		h163.1V293H174.4V299.7z M174.4,318.7h163.1V312H174.4V318.7z"/>
	<path class="st2" d="M294.5,108.1c0-20.8-16.9-37.7-37.7-37.7l-0.7,0.1v21.6l0.7-0.1c8.9,0,16.1,7.2,16.1,16.1H256v44.2h64v-44.2
		C320,108.1,294.5,108.1,294.5,108.1z M301,137.3c-4,0-7.2-3.2-7.2-7.2s3.2-7.2,7.2-7.2s7.2,3.2,7.2,7.2S305,137.3,301,137.3z"/>
</g>
</svg>
